<svg width="18" height="18" viewBox="0 0 18 18" fill="none" xmlns="http://www.w3.org/2000/svg">
<path fill-rule="evenodd" clip-rule="evenodd" d="M18 9C18 10.6781 17.5407 12.2489 16.741 13.5936L17.5342 16.3696C17.7434 17.1019 17.0899 17.79 16.3478 17.6187L13.2908 16.9133C12.0154 17.6063 10.5537 18 9 18C4.02944 18 0 13.9706 0 9C0 4.02944 4.02944 0 9 0C13.9706 0 18 4.02944 18 9ZM5 10.5C5.82843 10.5 6.5 9.82843 6.5 9C6.5 8.17157 5.82843 7.5 5 7.5C4.17157 7.5 3.5 8.17157 3.5 9C3.5 9.82843 4.17157 10.5 5 10.5ZM9 10.5C9.82843 10.5 10.5 9.82843 10.5 9C10.5 8.17157 9.82843 7.5 9 7.5C8.17157 7.5 7.5 8.17157 7.5 9C7.5 9.82843 8.17157 10.5 9 10.5ZM14.5 9C14.5 9.82843 13.8284 10.5 13 10.5C12.1716 10.5 11.5 9.82843 11.5 9C11.5 8.17157 12.1716 7.5 13 7.5C13.8284 7.5 14.5 8.17157 14.5 9Z" fill="#5C5C5C"/>
</svg>
