<svg width="16" height="18" viewBox="0 0 16 18" fill="none" xmlns="http://www.w3.org/2000/svg">
<path fill-rule="evenodd" clip-rule="evenodd" d="M3 0H15C15.2652 0 15.5196 0.105357 15.7071 0.292893C15.8946 0.48043 16 0.734784 16 1V17C16 17.2652 15.8946 17.5196 15.7071 17.7071C15.5196 17.8946 15.2652 18 15 18H3C2.20435 18 1.44129 17.6839 0.87868 17.1213C0.316071 16.5587 0 15.7956 0 15V3C0 2.20435 0.316071 1.44129 0.87868 0.87868C1.44129 0.316071 2.20435 0 3 0ZM2.29289 15.7071C2.48043 15.8946 2.73478 16 3 16H14V14H3C2.73478 14 2.48043 14.1054 2.29289 14.2929C2.10536 14.4804 2 14.7348 2 15C2 15.2652 2.10536 15.5196 2.29289 15.7071ZM8 11C10.2091 11 12 9.20914 12 7C12 4.79086 10.2091 3 8 3C5.79086 3 4 4.79086 4 7C4 9.20914 5.79086 11 8 11ZM6.44444 7C6.19893 7 6 6.79921 6 6.5514V5.67082C6 5.42302 6.19893 5.22222 6.44444 5.22222C6.68996 5.22222 6.88889 5.42302 6.88889 5.67082V6.5514C6.88889 6.79915 6.69001 7 6.44444 7ZM9.55556 7C9.31004 7 9.11111 6.79921 9.11111 6.5514V5.67082C9.11111 5.42302 9.31004 5.22222 9.55556 5.22222C9.80107 5.22222 10 5.42302 10 5.67082V6.5514C10 6.79915 9.80101 7 9.55556 7ZM7.99998 8.77778C7.67965 8.77778 7.37503 8.61075 7.16425 8.31954C7.0859 8.21132 7.09528 8.04714 7.18517 7.95285C7.27509 7.85856 7.41139 7.86982 7.48976 7.97804C7.61854 8.15598 7.80451 8.25799 8.00001 8.25799C8.19551 8.25799 8.38148 8.15598 8.51026 7.97804C8.58855 7.86986 8.72493 7.85856 8.81485 7.95285C8.90471 8.04714 8.91409 8.21132 8.83577 8.31954C8.62493 8.61072 8.32032 8.77778 7.99998 8.77778Z" fill="#5C5C5C"/>
</svg>
