<svg width="18" height="18" viewBox="0 0 18 18" fill="none" xmlns="http://www.w3.org/2000/svg">
<path fill-rule="evenodd" clip-rule="evenodd" d="M4 0C1.79086 0 0 1.79086 0 4V14C0 16.2091 1.79086 18 4 18H14C16.2091 18 18 16.2091 18 14V4C18 1.79086 16.2091 0 14 0H4ZM9 3C8.17157 3 7.5 3.67157 7.5 4.5V13.5C7.5 14.3284 8.17157 15 9 15C9.82843 15 10.5 14.3284 10.5 13.5V4.5C10.5 3.67157 9.82843 3 9 3ZM4 9C3.17157 9 2.5 9.67157 2.5 10.5V13.5C2.5 14.3284 3.17157 15 4 15C4.82843 15 5.5 14.3284 5.5 13.5V10.5C5.5 9.67157 4.82843 9 4 9ZM12.5 8.5C12.5 7.67157 13.1716 7 14 7C14.8284 7 15.5 7.67157 15.5 8.5V13.5C15.5 14.3284 14.8284 15 14 15C13.1716 15 12.5 14.3284 12.5 13.5V8.5Z" fill="#008FFF"/>
</svg>
