<svg width="18" height="18" viewBox="0 0 18 18" fill="none" xmlns="http://www.w3.org/2000/svg">
<path fill-rule="evenodd" clip-rule="evenodd" d="M9.71368 0.499524C9.3217 0.100155 8.6783 0.100154 8.28633 0.499524L4.04392 4.82192C3.42301 5.45453 3.87119 6.52239 4.7576 6.52239H5.4V15.7724C5.4 16.877 6.29544 17.7724 7.40001 17.7724H10.6C11.7046 17.7724 12.6 16.877 12.6 15.7724V6.52239H13.2424C14.1288 6.52239 14.577 5.45453 13.9561 4.82192L9.71368 0.499524ZM8.99471 6.52239H9.00531C9.99698 6.52525 10.8 7.33004 10.8 8.32238C10.8 9.3165 9.99412 10.1224 9.00001 10.1224C8.0059 10.1224 7.20001 9.3165 7.20001 8.32238C7.20001 7.33004 8.00303 6.52525 8.99471 6.52239Z" fill="#5C5C5C"/>
<path d="M1.8 8.32238C0.805888 8.32238 0 9.12827 0 10.1224V15.9724C0 16.9665 0.805888 17.7724 1.8 17.7724C2.79411 17.7724 3.6 16.9665 3.6 15.9724V10.1224C3.6 9.12827 2.79411 8.32238 1.8 8.32238Z" fill="#5C5C5C"/>
<path d="M16.2 8.32238C15.2059 8.32238 14.4 9.12827 14.4 10.1224V15.9724C14.4 16.9665 15.2059 17.7724 16.2 17.7724C17.1941 17.7724 18 16.9665 18 15.9724V10.1224C18 9.12827 17.1941 8.32238 16.2 8.32238Z" fill="#5C5C5C"/>
</svg>
