<svg width="18" height="18" viewBox="0 0 18 18" fill="none" xmlns="http://www.w3.org/2000/svg">
<path fill-rule="evenodd" clip-rule="evenodd" d="M18 9C18 13.9706 13.9706 18 9 18C4.02944 18 0 13.9706 0 9C0 4.02944 4.02944 0 9 0C13.9706 0 18 4.02944 18 9ZM4.5 7.99065C4.5 8.54821 4.9476 9 5.5 9C6.05253 9 6.5 8.54808 6.5 7.99065V6.00935C6.5 5.45179 6.0524 5 5.5 5C4.9476 5 4.5 5.45179 4.5 6.00935V7.99065ZM11.5 7.99065C11.5 8.54821 11.9476 9 12.5 9C13.0523 9 13.5 8.54808 13.5 7.99065V6.00935C13.5 5.45179 13.0524 5 12.5 5C11.9476 5 11.5 5.45179 11.5 6.00935V7.99065ZM7.11956 11.969C7.59382 12.6242 8.27921 13 8.99996 13C9.72071 13 10.4061 12.6241 10.8805 11.969C11.0567 11.7255 11.0356 11.3561 10.8334 11.1439C10.6311 10.9318 10.3242 10.9572 10.1481 11.2006C9.85833 11.601 9.4399 11.8305 9.00002 11.8305C8.56015 11.8305 8.14172 11.601 7.85197 11.2006C7.67562 10.9571 7.36896 10.9318 7.16664 11.1439C6.96439 11.3561 6.94328 11.7255 7.11956 11.969Z" fill="#5C5C5C"/>
</svg>
